<?xml version="1.0" encoding="iso-8859-1"?>
<!-- Generator: Adobe Illustrator 17.1.0, SVG Export Plug-In . SVG Version: 6.00 Build 0)  -->
<!DOCTYPE svg PUBLIC "-//W3C//DTD SVG 1.1//EN" "http://www.w3.org/Graphics/SVG/1.1/DTD/svg11.dtd">
<svg version="1.1" id="Capa_1" xmlns="http://www.w3.org/2000/svg" xmlns:xlink="http://www.w3.org/1999/xlink" x="0px" y="0px"
	 viewBox="0 0 184.706 184.706" style="enable-background:new 0 0 184.706 184.706;" xml:space="preserve">
<path d="M156.169,184.706H33.208c-3.044,0-5.52-2.476-5.52-5.52V61.676c0-0.53,0.211-1.039,0.586-1.414L39.38,49.156l-6.397-6.397
	l-0.794,0.794c-0.781,0.781-2.047,0.781-2.828,0l-5.757-5.757c-0.781-0.781-0.781-2.047,0-2.828l21.75-21.75
	c0.781-0.781,2.047-0.781,2.828,0l5.757,5.757c0.781,0.781,0.781,2.047,0,2.828l-0.793,0.793l6.397,6.397l9.39-9.39
	c0.375-0.375,0.884-0.586,1.414-0.586h12.009V15c0-8.271,6.729-15,15-15h31.666c8.271,0,15,6.729,15,15v4.018h12.147
	c3.044,0,5.52,2.476,5.52,5.52v154.649C161.688,182.23,159.213,184.706,156.169,184.706z M31.688,62.504v116.683
	c0,0.838,0.682,1.52,1.52,1.52h122.961c0.838,0,1.52-0.682,1.52-1.52V24.537c0-0.838-0.682-1.52-1.52-1.52H71.175L31.688,62.504z
	 M35.978,40.098l6.21,6.21l14.507-14.506l-6.21-6.21L35.978,40.098z M27.846,36.382l2.929,2.929l18.922-18.922l-2.929-2.929
	L27.846,36.382z M86.355,19.018h53.666V15c0-6.065-4.935-11-11-11H97.355c-6.065,0-11,4.935-11,11V19.018z M150.688,174.805
	c-0.512,0-1.023-0.195-1.414-0.586l-30-30c-0.781-0.781-0.781-2.047,0-2.828s2.047-0.781,2.828,0l30,30
	c0.781,0.781,0.781,2.047,0,2.828C151.712,174.609,151.2,174.805,150.688,174.805z M38.82,174.805c-0.512,0-1.023-0.195-1.414-0.586
	c-0.781-0.781-0.781-2.047,0-2.828l30-30c0.781-0.781,2.047-0.781,2.828,0s0.781,2.047,0,2.828l-30,30
	C39.844,174.609,39.332,174.805,38.82,174.805z M115.688,137.695H74.355c-1.105,0-2-0.896-2-2V68.028c0-1.104,0.895-2,2-2h41.333
	c1.104,0,2,0.896,2,2v67.667C117.688,136.8,116.793,137.695,115.688,137.695z M76.355,133.695h37.333V70.028H76.355V133.695z
	 M120.688,62.333c-0.512,0-1.023-0.195-1.414-0.586c-0.781-0.781-0.781-2.047,0-2.828l30-30c0.781-0.781,2.047-0.781,2.828,0
	s0.781,2.047,0,2.828l-30,30C121.712,62.138,121.2,62.333,120.688,62.333z M68.82,62.333c-0.512,0-1.023-0.195-1.414-0.586
	L55.323,49.664c-0.781-0.781-0.781-2.047,0-2.828s2.047-0.781,2.828,0l12.083,12.083c0.781,0.781,0.781,2.047,0,2.828
	C69.844,62.138,69.332,62.333,68.82,62.333z"/>
<g>
</g>
<g>
</g>
<g>
</g>
<g>
</g>
<g>
</g>
<g>
</g>
<g>
</g>
<g>
</g>
<g>
</g>
<g>
</g>
<g>
</g>
<g>
</g>
<g>
</g>
<g>
</g>
<g>
</g>
</svg>
