<?xml version="1.0" encoding="iso-8859-1"?>
<!-- Generator: Adobe Illustrator 19.0.0, SVG Export Plug-In . SVG Version: 6.00 Build 0)  -->
<svg version="1.1" id="Layer_1" xmlns="http://www.w3.org/2000/svg" xmlns:xlink="http://www.w3.org/1999/xlink" x="0px" y="0px"
	 viewBox="0 0 490.667 490.667" style="enable-background:new 0 0 490.667 490.667;" xml:space="preserve">
<g>
	<g>
		<g>
			<path d="M224,106.667c-5.888,0-10.667,4.779-10.667,10.667v25.408l-27.221-13.611c-5.269-2.624-11.669-0.491-14.315,4.779
				c-2.645,5.269-0.491,11.669,4.779,14.315l36.779,18.389v68.053h-46.741l-18.389-36.779c-2.645-5.269-9.045-7.381-14.315-4.779
				c-5.269,2.645-7.403,9.045-4.779,14.315l13.611,27.221h-25.408c-5.888,0-10.667,4.779-10.667,10.667s4.779,10.667,10.667,10.667
				h25.408L129.131,283.2c-2.645,5.269-0.491,11.669,4.779,14.315c1.536,0.768,3.157,1.131,4.757,1.131
				c3.925,0,7.68-2.155,9.557-5.888l18.389-36.779h46.72v68.075l-36.779,18.389c-5.269,2.645-7.403,9.045-4.779,14.315
				c1.877,3.733,5.632,5.888,9.557,5.888c1.6,0,3.221-0.363,4.757-1.131l27.221-13.611v25.408c0,5.888,4.779,10.667,10.667,10.667
				s10.667-4.779,10.667-10.667v-256C234.667,111.445,229.888,106.667,224,106.667z"/>
			<path d="M266.667,192c23.616,0,35.179-7.723,44.48-13.931c6.656-4.459,11.051-7.403,19.52-7.403
				c17.152,0,24.661,5.013,32.619,10.347c7.701,5.141,16.448,10.987,31.381,10.987c5.888,0,10.667-4.779,10.667-10.667
				s-4.779-10.667-10.667-10.667c-8.469,0-12.864-2.944-19.52-7.403c-9.301-6.208-20.864-13.931-44.48-13.931
				c-14.933,0-23.68,5.845-31.381,10.987c-7.957,5.333-15.467,10.347-32.619,10.347c-5.888,0-10.667,4.779-10.667,10.667
				S260.779,192,266.667,192z"/>
			<path d="M394.667,298.667c-8.469,0-12.864-2.944-19.52-7.403c-9.301-6.208-20.864-13.931-44.48-13.931
				c-14.933,0-23.68,5.845-31.381,10.987c-7.957,5.333-15.467,10.347-32.619,10.347c-5.888,0-10.667,4.779-10.667,10.667
				S260.779,320,266.667,320c23.616,0,35.179-7.723,44.48-13.931c6.656-4.459,11.051-7.403,19.52-7.403
				c17.152,0,24.661,5.013,32.619,10.347c7.701,5.141,16.448,10.987,31.381,10.987c5.888,0,10.667-4.779,10.667-10.667
				S400.555,298.667,394.667,298.667z"/>
			<path d="M394.667,234.667c-8.469,0-12.864-2.944-19.52-7.403c-9.301-6.208-20.864-13.931-44.48-13.931
				c-14.933,0-23.68,5.845-31.381,10.987c-7.957,5.333-15.467,10.347-32.619,10.347c-5.888,0-10.667,4.779-10.667,10.667
				S260.779,256,266.667,256c23.616,0,35.179-7.723,44.48-13.931c6.656-4.459,11.051-7.403,19.52-7.403
				c17.152,0,24.661,5.013,32.619,10.347c7.701,5.141,16.448,10.987,31.381,10.987c5.888,0,10.667-4.779,10.667-10.667
				S400.555,234.667,394.667,234.667z"/>
			<path d="M245.333,0C110.059,0,0,110.059,0,245.333s110.059,245.333,245.333,245.333s245.333-110.059,245.333-245.333
				S380.608,0,245.333,0z M245.333,469.333c-123.52,0-224-100.48-224-224s100.48-224,224-224s224,100.48,224,224
				S368.853,469.333,245.333,469.333z"/>
		</g>
	</g>
</g>
<g>
</g>
<g>
</g>
<g>
</g>
<g>
</g>
<g>
</g>
<g>
</g>
<g>
</g>
<g>
</g>
<g>
</g>
<g>
</g>
<g>
</g>
<g>
</g>
<g>
</g>
<g>
</g>
<g>
</g>
</svg>
